HIERARCHY
ROOT Root
{
	OFFSET 0.00000 0.00000 0.00000
	CHANNELS 6 Xposition Yposition Zposition Zrotation Xrotation Yrotation
	JOINT Hips
	{
		OFFSET 0 0 0	
		CHANNELS 3 Zrotation Xrotation Yrotation
		JOINT Spine
		{
			OFFSET 0 4 0	
			CHANNELS 3 Zrotation Xrotation Yrotation
			JOINT Spine1
			{
				OFFSET 0 19.4 0	
				CHANNELS 3 Zrotation Xrotation Yrotation
				JOINT Spine2
				{
					OFFSET 0 16.6 0	
					CHANNELS 3 Zrotation Xrotation Yrotation
					JOINT LeftCollar
					{
						OFFSET 0 10 0	
						CHANNELS 3 Zrotation Xrotation Yrotation
						JOINT LeftArm
						{
							OFFSET 15.6 -2 3	
							CHANNELS 3 Zrotation Xrotation Yrotation
							JOINT LeftForeArm
							{
								OFFSET 3.5 -27 -1	
								CHANNELS 3 Zrotation Xrotation Yrotation
								JOINT LeftHand
								{
									OFFSET 1 -27 1	
									CHANNELS 3 Zrotation Xrotation Yrotation
									End Site
									{
										OFFSET 0 -15 0
									}
								}
							}
						}
					}
					JOINT RightCollar
					{
						OFFSET 0 10 0	
						CHANNELS 3 Zrotation Xrotation Yrotation
						JOINT RightArm
						{
							OFFSET -15.6 -2 3	
							CHANNELS 3 Zrotation Xrotation Yrotation
							JOINT RightForeArm
							{
								OFFSET -3.5 -27 -1	
								CHANNELS 3 Zrotation Xrotation Yrotation
								JOINT RightHand
								{
									OFFSET -1 -27 1	
									CHANNELS 3 Zrotation Xrotation Yrotation
									End Site
									{
										OFFSET 0 -15 0
									}
								}
							}
						}
					}
					JOINT Neck
					{
						OFFSET 0 10 0	
						CHANNELS 3 Zrotation Xrotation Yrotation
						JOINT Head
						{
							OFFSET 0 12.7 3	
							CHANNELS 3 Zrotation Xrotation Yrotation
							End Site
							{
								OFFSET 0 12.7 3
							}
						}
					}
				}
			}
		}
	}
	JOINT LeftHip
	{
		OFFSET 0 0 0	
		CHANNELS 3 Zrotation Xrotation Yrotation
		JOINT LeftUpLeg
		{
			OFFSET 8.8 -6 0	
			CHANNELS 3 Zrotation Xrotation Yrotation
			JOINT LeftLeg
			{
				OFFSET 0 -39 2	
				CHANNELS 3 Zrotation Xrotation Yrotation
				JOINT LeftFoot
				{
					OFFSET 0 -43 -2	
					CHANNELS 3 Zrotation Xrotation Yrotation
					JOINT LeftFootFront
					{
						OFFSET 0 -7 8.5	
						CHANNELS 3 Zrotation Xrotation Yrotation
						End Site
						{
							OFFSET 0 -0.5 9
						}
					}
				}
				JOINT LeftHeel
				{
					OFFSET 0 -43 -2	
					CHANNELS 3 Zrotation Xrotation Yrotation
					End Site
					{
						OFFSET 0 -7.5 -5
					}
				}
			}
		}
	}
	JOINT RightHip
	{
		OFFSET 0 0 0	
		CHANNELS 3 Zrotation Xrotation Yrotation
		JOINT RightUpLeg
		{
			OFFSET -8.8 -6 0	
			CHANNELS 3 Zrotation Xrotation Yrotation
			JOINT RightLeg
			{
				OFFSET 0 -39 2	
				CHANNELS 3 Zrotation Xrotation Yrotation
				JOINT RightFoot
				{
					OFFSET 0 -43 -2	
					CHANNELS 3 Zrotation Xrotation Yrotation
					JOINT RightFootFront
					{
						OFFSET 0 -7 8.5	
						CHANNELS 3 Zrotation Xrotation Yrotation
						End Site
						{
							OFFSET 0 -0.5 9
						}
					}
				}
				JOINT RightHeel
				{
					OFFSET 0 -43 -2	
					CHANNELS 3 Zrotation Xrotation Yrotation
					End Site
					{
						OFFSET 0 -7.5 -5
					}
				}
			}
		}
	}
}
MOTION
Frames: 11
Frame Time: 0.025
0 95.624 0 -0 0 -0 -0.055302 0.34424 -10.291 0.015543 -0.19318 5.5996 0.015543 -0.19318 5.5996 0.011788 -0.16239 4.7036 -0 0 -0 0.16461 0.59591 -4.3747 -0.12369 -0.43393 -2.8571 -0.073911 0.16745 10.56 -0 0 -0 0.17229 0.70035 -2.0712 0.0089543 -0.20011 -34.626 0.081512 -0.349 29.046 0.82054 -0.5007 -1.567 0.82054 -0.5007 -1.567 -0.055302 0.34424 -10.291 0.23614 -0.28193 10.011 -0.24996 0.28739 -6.0847 -0.22889 0.080032 0.87328 -0 0 1.8239e-08 -0 0 -0 -0.055302 0.34424 -10.291 0.22668 -0.24808 -2.1163 -0.2167 0.29945 19.924 -0.25699 -0.35105 -6.7832 0 0 -3.3383e-09 -0 0 -0 
0 95.624 0 -0 0 -0 -0.058331 0.3425 -10.29 0.015735 -0.19082 5.6004 0.015735 -0.19082 5.6004 0.011965 -0.16041 4.7044 -0 0 -0 0.16914 0.59156 -4.374 -0.12598 -0.43832 -2.8626 -0.074872 0.17086 10.562 -0 0 -0 0.17206 0.69671 -2.0722 0.0024382 -0.20073 -34.628 0.088676 -0.34493 29.046 0.82979 -0.50422 -1.5674 0.82979 -0.50422 -1.5674 -0.058331 0.3425 -10.29 0.23519 -0.27962 10.01 -0.24575 0.29007 -6.0843 -0.22919 0.076612 0.87256 -0.0026318 -0.0026068 -0.0021444 -0 0 -0 -0.058331 0.3425 -10.29 0.23316 -0.24327 -2.1193 -0.2164 0.30107 19.926 -0.26226 -0.35376 -6.7832 -0.0028792 -0.0013612 -2.3703e-05 -0 0 -0 
0 95.624 0 -0 0 -0 -0.06262 0.34003 -10.289 0.01615 -0.18744 5.6017 0.01615 -0.18744 5.6017 0.012336 -0.15757 4.7054 -0 0 -0 0.17557 0.58623 -4.3735 -0.12946 -0.44526 -2.8692 -0.077211 0.17665 10.564 -0 0 -0 0.17066 0.69088 -2.0733 -0.0038483 -0.2011 -34.631 0.10164 -0.34429 29.044 0.84267 -0.5092 -1.568 0.84267 -0.5092 -1.568 -0.06262 0.34003 -10.289 0.23389 -0.27635 10.01 -0.24076 0.29311 -6.0832 -0.23136 0.070002 0.86887 -0.0037036 -0.0036863 -0.0030066 -0 0 -0 -0.06262 0.34003 -10.289 0.24234 -0.23643 -2.1235 -0.21559 0.30217 19.928 -0.27268 -0.35736 -6.7816 -0.0040901 -0.0019443 -2.0155e-05 -0 0 -0 
0 95.624 0 -0 0 -0 -0.067222 0.33725 -10.288 0.016409 -0.18393 5.6029 0.016409 -0.18393 5.6029 0.012576 -0.15463 4.7065 -0 0 -0 0.18129 0.58172 -4.3739 -0.13078 -0.4505 -2.8753 -0.080501 0.1819 10.566 -0 0 -0 0.16806 0.68382 -2.0747 -0.0070562 -0.20109 -34.634 0.11495 -0.3453 29.041 0.85657 -0.51438 -1.5686 0.85657 -0.51438 -1.5686 -0.067222 0.33725 -10.288 0.23281 -0.27287 10.009 -0.23687 0.29579 -6.0827 -0.23348 0.062913 0.86494 -0.0037707 -0.0038429 -0.0031727 -0 0 -0 -0.067222 0.33725 -10.288 0.25203 -0.22892 -2.1279 -0.21418 0.30195 19.929 -0.28483 -0.36017 -6.779 -0.0046927 -0.0021625 2.7275e-05 -0 0 -0 
0 95.624 0 -0 0 -0 -0.072007 0.33388 -10.288 0.01618 -0.18027 5.6042 0.01618 -0.18027 5.6042 0.012407 -0.15155 4.7075 -0 0 -0 0.18631 0.57696 -4.3742 -0.13098 -0.45317 -2.8801 -0.082176 0.1856 10.566 -0 0 -0 0.16484 0.67591 -2.0772 -0.0087615 -0.20111 -34.636 0.12803 -0.3455 29.039 0.87124 -0.51982 -1.5691 0.87124 -0.51982 -1.5691 -0.072007 0.33388 -10.288 0.23252 -0.26941 10.008 -0.23441 0.29842 -6.0819 -0.23495 0.056551 0.86132 -0.003136 -0.0036362 -0.0032135 -0 0 -0 -0.072007 0.33388 -10.288 0.2618 -0.22029 -2.1318 -0.21332 0.30048 19.93 -0.29682 -0.36262 -6.7769 -0.0055357 -0.0026251 8.4153e-05 -0 0 -0 
0 95.624 0 -0 0 -0 -0.076891 0.3295 -10.287 0.016192 -0.1759 5.6054 0.016192 -0.1759 5.6054 0.012446 -0.14788 4.7085 -0 0 -0 0.18885 0.57035 -4.3751 -0.1303 -0.45432 -2.8835 -0.082885 0.18765 10.566 -0 0 -0 0.15911 0.66668 -2.0808 -0.010205 -0.2022 -34.639 0.14068 -0.34389 29.039 0.88587 -0.52609 -1.5695 0.88587 -0.52609 -1.5695 -0.076891 0.3295 -10.287 0.2334 -0.26627 10.005 -0.23139 0.30145 -6.0798 -0.23744 0.051339 0.85775 -0.0013991 -0.0030869 -0.0029453 -0 0 -0 -0.076891 0.3295 -10.287 0.27229 -0.20919 -2.1346 -0.21371 0.29692 19.93 -0.30902 -0.36504 -6.7756 -0.0053013 -0.0036135 3.0769e-05 -0 0 -0 
0 95.624 0 -0 0 -0 -0.081435 0.32416 -10.286 0.017092 -0.1714 5.6067 0.017092 -0.1714 5.6067 0.013231 -0.1441 4.7096 -0 0 -0 0.18706 0.56318 -4.3763 -0.12603 -0.45439 -2.8864 -0.086988 0.18833 10.564 -0 0 -0 0.15042 0.65808 -2.0847 -0.01048 -0.20459 -34.641 0.15203 -0.34173 29.039 0.90062 -0.5317 -1.57 0.90062 -0.5317 -1.57 -0.081435 0.32416 -10.286 0.23574 -0.26303 10.002 -0.22356 0.30592 -6.0773 -0.24475 0.045687 0.85504 0.0021673 -0.0020425 -0.002206 -0 0 -0 -0.081435 0.32416 -10.286 0.28645 -0.19271 -2.1365 -0.21577 0.28849 19.93 -0.32322 -0.36745 -6.774 -0.001025 -0.0043298 -0.00040064 -0 0 -0 
0.0010145 95.624 -0.00016362 -0 0 -0 -0.085176 0.31806 -10.286 0.019036 -0.16648 5.6077 0.019036 -0.16648 5.6077 0.014896 -0.13998 4.7104 -0 0 -0 0.18128 0.55511 -4.3767 -0.1162 -0.45355 -2.8901 -0.097097 0.18796 10.563 -0 0 -0 0.14104 0.64901 -2.0879 -0.0085794 -0.20832 -34.643 0.16105 -0.33949 29.038 0.91554 -0.53634 -1.5706 0.91554 -0.53634 -1.5706 -0.085176 0.31806 -10.286 0.24047 -0.25754 9.9993 -0.21072 0.31208 -6.0755 -0.25673 0.037492 0.85331 0.0069355 -0.00013299 -0.0021427 -0 0 -0 -0.085176 0.31806 -10.286 0.30582 -0.16952 -2.1384 -0.22049 0.27559 19.93 -0.33694 -0.37173 -6.7729 0.0070185 -0.0036797 -0.0011282 -0 0 -0 
0.0052819 95.623 -0.00095264 -0 0 -0 -0.087768 0.31153 -10.286 0.022197 -0.16072 5.608 0.022197 -0.16072 5.608 0.01759 -0.13516 4.7107 -0 0 -0 0.1756 0.5454 -4.3755 -0.10562 -0.45192 -2.8945 -0.10798 0.18514 10.563 -0 0 -0 0.13342 0.63814 -2.0895 -0.0057507 -0.21215 -34.645 0.1689 -0.33679 29.038 0.92869 -0.54062 -1.5705 0.92869 -0.54062 -1.5705 -0.087768 0.31153 -10.286 0.24795 -0.2485 9.9967 -0.20422 0.31611 -6.0718 -0.26208 0.031034 0.8498 0.0095134 0.0019152 -0.0029643 -0 0 -0 -0.087768 0.31153 -10.286 0.32244 -0.14647 -2.1395 -0.21992 0.26477 19.929 -0.34668 -0.3766 -6.7717 0.011778 -0.0020476 -0.00081366 -0 0 -0 
0.016003 95.623 -0.0029547 -0 0 -0 -0.08833 0.30538 -10.286 0.02508 -0.15434 5.6084 0.02508 -0.15434 5.6084 0.020054 -0.12982 4.711 -0 0 -0 0.1786 0.53334 -4.375 -0.10351 -0.4492 -2.8979 -0.1132 0.18028 10.563 -0 0 -0 0.12946 0.62596 -2.0903 -0.0033597 -0.21402 -34.648 0.17695 -0.33412 29.038 0.93979 -0.54554 -1.5704 0.93979 -0.54554 -1.5704 -0.08833 0.30538 -10.286 0.25497 -0.23839 9.9937 -0.20807 0.3188 -6.0676 -0.25631 0.027383 0.84557 0.0079014 0.0022953 -0.0033675 -0 0 -0 -0.08833 0.30538 -10.286 0.32843 -0.1264 -2.1391 -0.20805 0.25737 19.925 -0.35432 -0.38029 -6.7695 0.008083 0.00041864 0.00051279 -0 0 -0 
0.037226 95.621 -0.006719 -0 0 -0 -0.085863 0.30043 -10.286 0.024493 -0.14806 5.61 0.024493 -0.14806 5.61 0.019602 -0.12454 4.7124 -0 0 -0 0.19436 0.51895 -4.3765 -0.11214 -0.44633 -2.9013 -0.11006 0.17705 10.563 -0 0 -0 0.13035 0.61314 -2.0928 -0.003873 -0.21474 -34.651 0.18683 -0.32994 29.038 0.95273 -0.55203 -1.5716 0.95273 -0.55203 -1.5716 -0.085863 0.30043 -10.286 0.25611 -0.23036 9.9912 -0.21359 0.3222 -6.0658 -0.2473 0.023699 0.84325 0.0045384 0.0010328 -0.0029696 -0 0 -0 -0.085863 0.30043 -10.286 0.32355 -0.10951 -2.1389 -0.18964 0.25292 19.923 -0.36434 -0.38273 -6.7664 0.0012386 0.0027747 0.0003899 -0 0 -0 
